<svg width="62" height="62" viewBox="0 0 62 62" fill="none" xmlns="http://www.w3.org/2000/svg">
<rect x="0.5" y="0.5" width="61" height="61" rx="30.5" fill="white"/>
<rect x="0.5" y="0.5" width="61" height="61" rx="30.5" stroke="#145AFE"/>
<path d="M44.5138 29.6745L42.6388 27.7995C42.3208 27.4819 41.8993 27.289 41.451 27.2561C41.0027 27.2232 40.5576 27.3524 40.1966 27.6202L34.3794 21.803C34.6473 21.4422 34.7768 20.9971 34.7441 20.5489C34.7114 20.1006 34.5187 19.679 34.2013 19.3608L32.3263 17.4858C32.1522 17.3117 31.9455 17.1735 31.7179 17.0793C31.4904 16.985 31.2466 16.9365 31.0003 16.9365C30.754 16.9365 30.5102 16.985 30.2827 17.0793C30.0552 17.1735 29.8484 17.3117 29.6743 17.4858L22.1743 24.9858C22.0002 25.16 21.862 25.3667 21.7678 25.5942C21.6735 25.8217 21.625 26.0656 21.625 26.3118C21.625 26.5581 21.6735 26.8019 21.7678 27.0295C21.862 27.257 22.0002 27.4637 22.1743 27.6378L24.0493 29.5128C24.3674 29.83 24.7888 30.0224 25.2368 30.0551C25.6848 30.0878 26.1296 29.9585 26.4903 29.6909L27.3306 30.5312L19.6689 38.1929C19.1598 38.7496 18.8852 39.4812 18.902 40.2353C18.9189 40.9894 19.226 41.708 19.7594 42.2414C20.2928 42.7748 21.0114 43.0819 21.7655 43.0988C22.5196 43.1156 23.2512 42.841 23.8079 42.3319L31.4685 34.6702L32.3087 35.5093C32.0408 35.8701 31.9114 36.3152 31.9441 36.7635C31.9767 37.2117 32.1694 37.6333 32.4868 37.9515L34.3618 39.8265C34.5359 40.0006 34.7427 40.1388 34.9702 40.233C35.1977 40.3273 35.4415 40.3758 35.6878 40.3758C35.9341 40.3758 36.1779 40.3273 36.4054 40.233C36.633 40.1388 36.8397 40.0006 37.0138 39.8265L44.5138 32.3265C44.6879 32.1524 44.8261 31.9456 44.9203 31.7181C45.0146 31.4906 45.0631 31.2468 45.0631 31.0005C45.0631 30.7542 45.0146 30.5104 44.9203 30.2829C44.8261 30.0554 44.6879 29.8486 44.5138 29.6745ZM25.3747 28.1874L23.4997 26.3124L30.9997 18.8124L32.8747 20.6874L25.3747 28.1874ZM22.4825 41.0054C22.2849 41.2018 22.0176 41.3121 21.739 41.3121C21.4603 41.3121 21.193 41.2018 20.9954 41.0054C20.7993 40.8078 20.6893 40.5408 20.6893 40.2624C20.6893 39.9841 20.7993 39.717 20.9954 39.5194L28.656 31.8577L30.1431 33.3437L22.4825 41.0054ZM27.8357 28.3819L33.0693 23.1483L38.8513 28.9304L33.6189 34.164L27.8357 28.3819ZM35.6872 38.4999L33.8122 36.6249L34.281 36.1562L40.8435 29.5937L41.3122 29.1249L43.1872 30.9999L35.6872 38.4999Z" fill="#145AFE"/>
</svg>
