<svg width="62" height="62" viewBox="0 0 62 62" fill="none" xmlns="http://www.w3.org/2000/svg">
<rect x="0.535714" y="0.535714" width="60.9286" height="60.9286" rx="30.4643" fill="white"/>
<rect x="0.535714" y="0.535714" width="60.9286" height="60.9286" rx="30.4643" stroke="#145AFE" stroke-width="1.07143"/>
<path d="M44.125 40.375H43.1875V24.4375C43.1875 24.1889 43.0887 23.9504 42.9129 23.7746C42.7371 23.5988 42.4986 23.5 42.25 23.5H37.5625V20.6875C37.5625 20.4389 37.4637 20.2004 37.2879 20.0246C37.1121 19.8488 36.8736 19.75 36.625 19.75H25.375C25.1264 19.75 24.8879 19.8488 24.7121 20.0246C24.5363 20.2004 24.4375 20.4389 24.4375 20.6875V27.25H19.75C19.5014 27.25 19.2629 27.3488 19.0871 27.5246C18.9113 27.7004 18.8125 27.9389 18.8125 28.1875V40.375H17.875C17.6264 40.375 17.3879 40.4738 17.2121 40.6496C17.0363 40.8254 16.9375 41.0639 16.9375 41.3125C16.9375 41.5611 17.0363 41.7996 17.2121 41.9754C17.3879 42.1512 17.6264 42.25 17.875 42.25H44.125C44.3736 42.25 44.6121 42.1512 44.7879 41.9754C44.9637 41.7996 45.0625 41.5611 45.0625 41.3125C45.0625 41.0639 44.9637 40.8254 44.7879 40.6496C44.6121 40.4738 44.3736 40.375 44.125 40.375ZM20.6875 29.125H25.375C25.6236 29.125 25.8621 29.0262 26.0379 28.8504C26.2137 28.6746 26.3125 28.4361 26.3125 28.1875V21.625H35.6875V24.4375C35.6875 24.6861 35.7863 24.9246 35.9621 25.1004C36.1379 25.2762 36.3764 25.375 36.625 25.375H41.3125V40.375H33.8125V35.6875C33.8125 35.4389 33.7137 35.2004 33.5379 35.0246C33.3621 34.8488 33.1236 34.75 32.875 34.75H29.125C28.8764 34.75 28.6379 34.8488 28.4621 35.0246C28.2863 35.2004 28.1875 35.4389 28.1875 35.6875V40.375H20.6875V29.125ZM31.9375 40.375H30.0625V36.625H31.9375V40.375ZM29.125 24.4375C29.125 24.1889 29.2238 23.9504 29.3996 23.7746C29.5754 23.5988 29.8139 23.5 30.0625 23.5H31.9375C32.1861 23.5 32.4246 23.5988 32.6004 23.7746C32.7762 23.9504 32.875 24.1889 32.875 24.4375C32.875 24.6861 32.7762 24.9246 32.6004 25.1004C32.4246 25.2762 32.1861 25.375 31.9375 25.375H30.0625C29.8139 25.375 29.5754 25.2762 29.3996 25.1004C29.2238 24.9246 29.125 24.6861 29.125 24.4375ZM29.125 28.1875C29.125 27.9389 29.2238 27.7004 29.3996 27.5246C29.5754 27.3488 29.8139 27.25 30.0625 27.25H31.9375C32.1861 27.25 32.4246 27.3488 32.6004 27.5246C32.7762 27.7004 32.875 27.9389 32.875 28.1875C32.875 28.4361 32.7762 28.6746 32.6004 28.8504C32.4246 29.0262 32.1861 29.125 31.9375 29.125H30.0625C29.8139 29.125 29.5754 29.0262 29.3996 28.8504C29.2238 28.6746 29.125 28.4361 29.125 28.1875ZM35.6875 28.1875C35.6875 27.9389 35.7863 27.7004 35.9621 27.5246C36.1379 27.3488 36.3764 27.25 36.625 27.25H38.5C38.7486 27.25 38.9871 27.3488 39.1629 27.5246C39.3387 27.7004 39.4375 27.9389 39.4375 28.1875C39.4375 28.4361 39.3387 28.6746 39.1629 28.8504C38.9871 29.0262 38.7486 29.125 38.5 29.125H36.625C36.3764 29.125 36.1379 29.0262 35.9621 28.8504C35.7863 28.6746 35.6875 28.4361 35.6875 28.1875ZM26.3125 31.9375C26.3125 32.1861 26.2137 32.4246 26.0379 32.6004C25.8621 32.7762 25.6236 32.875 25.375 32.875H23.5C23.2514 32.875 23.0129 32.7762 22.8371 32.6004C22.6613 32.4246 22.5625 32.1861 22.5625 31.9375C22.5625 31.6889 22.6613 31.4504 22.8371 31.2746C23.0129 31.0988 23.2514 31 23.5 31H25.375C25.6236 31 25.8621 31.0988 26.0379 31.2746C26.2137 31.4504 26.3125 31.6889 26.3125 31.9375ZM26.3125 35.6875C26.3125 35.9361 26.2137 36.1746 26.0379 36.3504C25.8621 36.5262 25.6236 36.625 25.375 36.625H23.5C23.2514 36.625 23.0129 36.5262 22.8371 36.3504C22.6613 36.1746 22.5625 35.9361 22.5625 35.6875C22.5625 35.4389 22.6613 35.2004 22.8371 35.0246C23.0129 34.8488 23.2514 34.75 23.5 34.75H25.375C25.6236 34.75 25.8621 34.8488 26.0379 35.0246C26.2137 35.2004 26.3125 35.4389 26.3125 35.6875ZM29.125 31.9375C29.125 31.6889 29.2238 31.4504 29.3996 31.2746C29.5754 31.0988 29.8139 31 30.0625 31H31.9375C32.1861 31 32.4246 31.0988 32.6004 31.2746C32.7762 31.4504 32.875 31.6889 32.875 31.9375C32.875 32.1861 32.7762 32.4246 32.6004 32.6004C32.4246 32.7762 32.1861 32.875 31.9375 32.875H30.0625C29.8139 32.875 29.5754 32.7762 29.3996 32.6004C29.2238 32.4246 29.125 32.1861 29.125 31.9375ZM35.6875 31.9375C35.6875 31.6889 35.7863 31.4504 35.9621 31.2746C36.1379 31.0988 36.3764 31 36.625 31H38.5C38.7486 31 38.9871 31.0988 39.1629 31.2746C39.3387 31.4504 39.4375 31.6889 39.4375 31.9375C39.4375 32.1861 39.3387 32.4246 39.1629 32.6004C38.9871 32.7762 38.7486 32.875 38.5 32.875H36.625C36.3764 32.875 36.1379 32.7762 35.9621 32.6004C35.7863 32.4246 35.6875 32.1861 35.6875 31.9375ZM35.6875 35.6875C35.6875 35.4389 35.7863 35.2004 35.9621 35.0246C36.1379 34.8488 36.3764 34.75 36.625 34.75H38.5C38.7486 34.75 38.9871 34.8488 39.1629 35.0246C39.3387 35.2004 39.4375 35.4389 39.4375 35.6875C39.4375 35.9361 39.3387 36.1746 39.1629 36.3504C38.9871 36.5262 38.7486 36.625 38.5 36.625H36.625C36.3764 36.625 36.1379 36.5262 35.9621 36.3504C35.7863 36.1746 35.6875 35.9361 35.6875 35.6875Z" fill="#145AFE"/>
</svg>
