<svg width="167" height="28" viewBox="0 0 167 28" fill="none" xmlns="http://www.w3.org/2000/svg">
<g id="Group 1000001635">
<g id="Group">
<path id="Vector" d="M27.3813 3.5288L27.3647 0.847646C27.3631 0.693487 27.2944 0.651925 27.1584 0.722203L0.193454 14.3683C0.147357 14.3917 0.114864 14.428 0.0974833 14.4756C0.0665004 14.5617 0.0589445 14.6683 0.0748138 14.7945L0 13.2378L9.73088 8.42031L21.561 2.54944C23.1669 1.75975 24.7734 0.961753 26.3808 0.155443C26.6634 0.01262 26.9044 -0.0319651 27.1039 0.0224438C27.277 0.0692959 27.3972 0.225722 27.3972 0.403306L27.382 3.52955L27.3813 3.5288Z" fill="#AAABAD"/>
<path id="Vector_2" d="M27.3813 3.52878C27.3926 4.65927 27.3858 5.79053 27.3609 6.92329C27.3443 7.67595 27.1395 8.22457 26.4896 8.56387C25.4672 9.09738 24.4417 9.62635 23.414 10.1523L14.0677 14.9758C11.7697 16.1577 9.47321 17.3471 7.17896 18.5449C6.34923 18.9786 6.32656 19.5416 6.24797 20.351C6.17467 21.0961 5.68499 21.4059 5.06306 21.6862C3.41946 22.4283 1.75848 23.1689 0.0801132 23.9072L0.065001 17.3622L0.0740688 14.7937C0.0574438 14.6675 0.0649997 14.5609 0.0967382 14.4748C0.114119 14.4272 0.145859 14.3917 0.192711 14.3675L27.1576 0.722184C27.2944 0.651906 27.3632 0.694224 27.3639 0.847627L27.3805 3.52878H27.3813ZM14.3776 8.47848C12.0818 9.65658 9.78304 10.8407 7.47973 12.0324C6.77997 12.3944 6.37794 12.8841 6.27215 13.5022C6.2185 14.2322 6.18751 14.9569 6.17996 15.6763C6.17618 16.0708 6.2918 16.3814 6.52757 16.6096C6.91977 16.9904 7.38149 16.8446 7.79711 16.6338C11.9329 14.5307 15.9018 12.5229 19.7043 10.6087C20.1343 10.3926 20.6376 10.1735 20.72 9.62711C20.8439 8.81022 20.8643 7.96008 20.887 7.13563C20.9021 6.60515 20.6996 6.21068 20.2787 5.953C20.0875 5.72403 19.8615 5.67415 19.6031 5.80262C18.3411 6.43059 16.6 7.32304 14.3783 8.47772L14.3776 8.47848Z" fill="white"/>
<path id="Vector_3" d="M6.27218 13.5022L6.35304 16.0632C6.36059 16.2982 6.55707 16.4834 6.79133 16.4758C6.85405 16.4736 6.91526 16.4577 6.97043 16.4297L16.9439 11.3455C17.7789 10.914 18.6056 10.4788 19.424 10.0405C20.0603 9.7004 20.2182 9.25379 20.2311 8.51398C20.2462 7.66914 20.2621 6.81522 20.2779 5.95299C20.6989 6.21067 20.9014 6.60514 20.8863 7.13563C20.8636 7.96007 20.8432 8.81021 20.7193 9.6271C20.6369 10.1735 20.1336 10.3934 19.7036 10.6087C15.901 12.5229 11.9322 14.5307 7.79638 16.6338C7.38152 16.8438 6.9198 16.9904 6.52684 16.6096C6.29183 16.3821 6.17545 16.0708 6.17923 15.6763C6.18679 14.9569 6.21777 14.2322 6.27142 13.5022H6.27218Z" fill="#AAABAD"/>
<path id="Vector_4" d="M32.2479 8.77848C32.1444 8.66739 32.0182 8.65001 31.8708 8.72785C29.0257 10.2188 22.0266 13.9247 10.8727 19.8462C9.89263 20.3661 9.16793 20.691 9.17398 21.7633C9.18305 23.5543 9.16944 25.3422 9.13468 27.1271C9.1309 27.3024 9.21479 27.4264 9.38632 27.4989L8.40621 27.5103C8.37749 25.4435 8.37522 23.3903 8.39865 21.35C8.40772 20.558 8.73191 19.9905 9.37121 19.6489C11.5755 18.4708 13.7836 17.2904 15.9947 16.1078L24.8793 11.3712L31.8111 7.74924C31.9063 7.69861 32.0242 7.73413 32.0756 7.82783C32.2434 8.12935 32.3008 8.44598 32.2486 8.77772L32.2479 8.77848Z" fill="#AAABAD"/>
<path id="Vector_5" d="M32.2479 8.77848C32.3507 9.47295 32.1081 9.98379 31.5209 10.3102C30.5733 10.8385 29.6136 11.3576 28.641 11.8669L17.5227 17.8716C16.4209 18.4459 15.6524 18.7368 15.6131 20.0834C15.5844 21.0938 15.5897 22.0868 15.6297 23.0631C15.8678 23.5898 16.1829 23.7591 16.5759 23.5702C19.8487 21.9946 23.1231 20.4197 26.3974 18.8464C26.6642 18.7172 26.8667 18.5403 27.1523 18.4482C27.3488 18.3847 27.5453 18.3046 27.7418 18.2078C29.668 17.2663 31.6003 16.3375 33.5378 15.4194C33.9595 15.2207 34.2429 15.1489 34.388 15.2055C34.4643 15.9816 34.4114 16.4728 34.23 16.6791L21.0517 23.1303L11.9851 27.5088L9.38481 27.4997C9.21327 27.4271 9.12939 27.3032 9.13317 27.1279C9.16793 25.343 9.18154 23.555 9.17247 21.7641C9.16718 20.6918 9.89187 20.3676 10.8712 19.8469C22.0251 13.9254 29.0242 10.2188 31.8693 8.72861C32.0167 8.65078 32.1429 8.66816 32.2464 8.77924L32.2479 8.77848Z" fill="white"/>
<path id="Vector_6" d="M34.388 15.2055C34.2429 15.1489 33.9595 15.2206 33.5379 15.4194C31.6003 16.3368 29.668 17.2663 27.7418 18.2078C27.5453 18.3046 27.3489 18.3847 27.1524 18.4482C26.8667 18.5403 26.6642 18.7164 26.3975 18.8464C23.1231 20.4197 19.8495 21.9946 16.5759 23.5701C16.1829 23.7591 15.8678 23.5898 15.6298 23.0631C15.9101 23.1931 16.1323 23.2248 16.2963 23.1568C17.0119 22.8591 18.014 22.3777 19.3001 21.7127L31.0608 15.894L34.0457 14.4015C34.2732 14.2874 34.4137 14.3554 34.4666 14.604C34.5119 14.8156 34.4855 15.0159 34.388 15.2048V15.2055Z" fill="#AAABAD"/>
</g>
<g id="Group_2">
<path id="Vector_7" d="M108.358 4.37838C108.847 4.55574 109.136 5.05045 109.224 5.85886C109.236 5.97107 109.191 6.00486 109.089 5.96021C107.661 5.37622 104.79 4.85739 103.713 6.10742C102.53 7.4769 102.512 12.1066 105.086 12.2888C106.575 12.395 107.859 12.1983 108.939 11.7012C109.123 11.6155 109.201 11.6734 109.173 11.8749L109.066 12.6809C109.039 12.8933 108.882 13.0682 108.674 13.1189C106.641 13.6088 104.687 13.6245 102.813 13.1672C100.52 12.6061 99.798 10.4958 99.8426 8.35892C99.9464 6.18102 100.991 4.86463 102.979 4.41095C104.616 4.03691 106.409 4.02605 108.36 4.37838H108.358Z" fill="white"/>
<path id="Vector_8" d="M43.1702 9.78631L43.1727 13.3711C43.1727 13.4194 43.1473 13.4435 43.0978 13.4435L40.4023 13.4459C40.3625 13.4459 40.342 13.4254 40.342 13.3832L40.3601 4.32046C40.3601 4.26375 40.4047 4.21669 40.4614 4.21548C42.6695 4.16601 44.7678 4.17084 46.7574 4.22996C48.6964 4.29029 50.6849 5.042 50.2614 7.45277C50.0128 8.8862 48.7061 9.44606 47.38 9.53896C45.9345 9.64273 44.5976 9.66324 43.3657 9.59929C43.2619 9.59447 43.1727 9.6729 43.1678 9.77546C43.1678 9.77908 43.1678 9.78149 43.1678 9.7851L43.1702 9.78631ZM43.1642 5.52343L43.1582 8.32393C43.1582 8.43493 43.2487 8.52422 43.3585 8.52422L45.8706 8.52664C46.8528 8.52905 47.6491 7.93782 47.6515 7.20783V6.64918C47.6515 5.91919 46.8588 5.32555 45.8766 5.32434L43.3645 5.32193C43.2535 5.32193 43.1642 5.41242 43.1642 5.52222V5.52343Z" fill="white"/>
<path id="Vector_9" d="M54.0935 8.07777L58.4734 8.05967C58.5724 8.05846 58.6544 8.13689 58.6568 8.23704C58.6568 8.23945 58.6568 8.24066 58.6568 8.24308L58.6508 9.03098C58.6508 9.12992 58.5699 9.21076 58.471 9.21076L54.0947 9.19025C53.9958 9.19025 53.9149 9.27109 53.9149 9.37003L53.9125 12.1428C53.9125 12.2417 53.9933 12.3226 54.0923 12.3226C54.0923 12.3226 54.0947 12.3226 54.0959 12.3226L59.5304 12.2743C59.6281 12.2743 59.709 12.3527 59.7102 12.4517L59.7162 13.2758C59.7162 13.3747 59.6354 13.4556 59.5364 13.4556L51.2411 13.4411C51.1422 13.4411 51.0613 13.3602 51.0613 13.2613L51.0818 4.38198C51.0818 4.28304 51.1627 4.2022 51.2616 4.2022L59.4363 4.18772C59.5352 4.18772 59.6161 4.26857 59.6161 4.36751V5.14696C59.6161 5.2459 59.5352 5.32674 59.4363 5.32674H54.0887C53.9897 5.32674 53.9089 5.40759 53.9089 5.50653L53.9149 7.8992C53.9149 7.99814 53.9958 8.07898 54.0947 8.07898L54.0935 8.07777Z" fill="white"/>
<path id="Vector_10" d="M70.4344 8.84517C70.5334 11.7084 69.1868 13.3204 66.2825 13.4616L60.6104 13.4495C60.5247 13.4495 60.4547 13.3783 60.4547 13.2903L60.4788 4.38079C60.4788 4.27702 60.5633 4.19135 60.6683 4.19135C62.343 4.18894 64.171 4.19739 66.151 4.21549C69.1096 4.24203 70.5394 5.92764 70.4344 8.84397V8.84517ZM63.2998 5.59583L63.2878 12.0945C63.2878 12.2321 63.3988 12.3431 63.5363 12.3431L65.6044 12.3455C66.9932 12.3467 68.1214 11.1763 68.1226 9.73082L68.1286 7.96798C68.1298 6.52249 67.0053 5.34968 65.6165 5.34847L63.5484 5.34606C63.4109 5.34606 63.2998 5.45707 63.2998 5.59462V5.59583Z" fill="white"/>
<path id="Vector_11" d="M81.068 8.14656C80.1945 8.90188 79.1894 9.28437 78.0528 9.29523C78.0009 9.29523 77.9599 9.33626 77.9587 9.38814C77.9587 9.41227 77.9671 9.434 77.9828 9.45209L81.3588 13.3047C81.3914 13.3421 81.389 13.3989 81.3516 13.4314C81.3347 13.4471 81.313 13.4544 81.2901 13.4544L78.3761 13.4459C78.2482 13.4459 78.1276 13.3856 78.0491 13.2842L74.5271 8.70642C74.4692 8.62799 74.4825 8.56404 74.5657 8.51457C74.6454 8.46872 74.7443 8.44579 74.8625 8.44579C76.3225 8.593 79.374 8.67022 78.8202 6.56955C78.6102 5.7744 77.9949 5.36295 76.9741 5.33399C76.1162 5.30986 75.2861 5.31107 74.4825 5.33641C74.4077 5.33762 74.3473 5.40036 74.3473 5.47758L74.3799 8.1731L74.3823 13.2661C74.3823 13.3904 74.3208 13.4519 74.1965 13.4519L71.6542 13.4544C71.5408 13.4544 71.4829 13.3964 71.4829 13.2806L71.5094 7.03288L71.5179 4.347C71.5179 4.27582 71.5746 4.21669 71.647 4.21549C73.6801 4.16964 75.7554 4.17567 77.8766 4.23358C78.4703 4.24927 79.0494 4.34097 79.6153 4.50989C81.2816 5.01063 82.0019 6.53697 81.0668 8.14897L81.068 8.14656Z" fill="white"/>
<path id="Vector_12" d="M87.0901 4.1805C89.6952 4.04898 91.9346 4.77414 92.5283 7.57343C92.9144 9.38573 92.55 10.9784 91.4375 12.3515L90.3552 13.02C86.3891 14.2905 81.2985 13.581 81.9585 8.07055C82.2047 5.12043 84.5129 4.20946 87.0914 4.17929L87.0901 4.1805ZM89.589 7.59032C89.5854 6.41269 88.6273 5.4619 87.4497 5.46672H87.0419C85.8642 5.47276 84.9135 6.42958 84.9183 7.60721L84.9267 10.1073C84.9303 11.2849 85.8884 12.2357 87.066 12.2309H87.4738C88.6515 12.2248 89.6023 11.268 89.5974 10.0904L89.589 7.59032Z" fill="white"/>
<path id="Vector_13" d="M112.144 11.3187L111.205 13.3458C111.181 13.3952 111.131 13.4266 111.076 13.4266L109.43 13.4471C109.351 13.4471 109.285 13.3844 109.285 13.3047C109.285 13.2842 109.29 13.2625 109.299 13.2432L113.505 4.28305C113.529 4.23358 113.578 4.20221 113.634 4.20221L116.641 4.18411C116.695 4.18411 116.746 4.21549 116.77 4.26496L121.081 13.2613C121.116 13.3325 121.086 13.4194 121.015 13.4531C120.994 13.4628 120.972 13.4676 120.949 13.4676L118.405 13.4495C118.35 13.4495 118.3 13.4182 118.276 13.3687L117.272 11.3247C117.248 11.2752 117.198 11.2439 117.143 11.2439L112.278 11.2354C112.221 11.2354 112.169 11.268 112.146 11.3199L112.144 11.3187ZM112.929 9.75012C112.903 9.80683 112.928 9.8744 112.985 9.90094C113 9.90818 113.017 9.9118 113.034 9.9118L116.427 9.88164C116.49 9.88164 116.541 9.82975 116.539 9.7658C116.539 9.75012 116.536 9.73443 116.529 9.71875L114.798 6.13034C114.771 6.07363 114.702 6.05071 114.645 6.07967C114.623 6.09053 114.605 6.10863 114.594 6.13034L112.928 9.74891L112.929 9.75012Z" fill="white"/>
<path id="Vector_14" d="M124.494 11.093L124.482 12.1488C124.482 12.2297 124.549 12.296 124.63 12.296L130.401 12.2936C130.538 12.2936 130.607 12.3624 130.607 12.4999L130.613 13.2372C130.613 13.3856 130.539 13.4604 130.391 13.4616L125.3 13.4736L121.844 13.4712C121.729 13.4712 121.637 13.3771 121.637 13.2613L121.661 4.40612C121.661 4.26977 121.729 4.201 121.865 4.19979L124.266 4.17566C124.412 4.17324 124.486 4.24564 124.488 4.39164L124.494 11.0943V11.093Z" fill="white"/>
<path id="Vector_15" d="M134.438 4.312L137.148 8.83913C137.195 8.91876 137.298 8.94531 137.376 8.89946C137.401 8.88498 137.421 8.86447 137.435 8.83913L140.049 4.35423C140.113 4.24201 140.209 4.18651 140.339 4.18651H143.088C143.198 4.18651 143.253 4.24201 143.253 4.35423L143.259 13.3264C143.259 13.3928 143.206 13.4459 143.14 13.4459L140.517 13.4543C140.429 13.4543 140.385 13.4109 140.385 13.3228L140.415 7.71096C140.418 7.3695 140.336 7.34778 140.169 7.64822L136.946 13.4881C136.921 13.534 136.862 13.5509 136.816 13.5255C136.8 13.5171 136.787 13.5038 136.779 13.4881L133.418 7.62771C133.242 7.32244 133.155 7.34537 133.158 7.70011L133.182 13.2492C133.182 13.3711 133.12 13.4326 132.999 13.435L131.361 13.4555C131.254 13.4568 131.164 13.3723 131.163 13.2661C131.163 13.2661 131.163 13.2637 131.163 13.2625L131.139 4.26614L134.033 4.18169C134.118 4.17927 134.2 4.19737 134.279 4.23598L134.438 4.31079V4.312Z" fill="white"/>
<path id="Vector_16" d="M154.934 8.10433C155.231 10.3824 154.437 12.5796 152.041 13.213C149.739 13.8212 147.63 13.6172 145.716 12.6013C145.038 11.9521 144.598 11.1401 144.394 10.1676C143.911 7.86784 144.517 5.25436 147.041 4.55815C150.179 3.69423 154.593 3.91022 154.934 8.10433ZM151.93 7.59153C151.924 6.41148 150.962 5.45948 149.781 5.46551L149.379 5.46792C148.199 5.47396 147.247 6.43561 147.253 7.61686L147.266 10.1109C147.273 11.2909 148.234 12.2429 149.415 12.2369L149.817 12.2345C150.997 12.2285 151.949 11.2668 151.943 10.0856L151.93 7.59153Z" fill="white"/>
<path id="Vector_17" d="M160.5 5.7032L163.6 10.4367C163.808 10.7504 163.911 10.719 163.909 10.3438L163.885 4.41698C163.885 4.26253 163.962 4.18773 164.115 4.19255L165.662 4.22513C165.817 4.22754 165.893 4.30597 165.893 4.46162L165.907 13.3289C165.907 13.4 165.85 13.458 165.782 13.458H165.779L162.728 13.4495C162.63 13.4495 162.539 13.4001 162.485 13.318L158.252 6.80965C158.057 6.508 157.959 6.53696 157.962 6.89652L157.976 13.3083C157.976 13.394 157.933 13.4375 157.847 13.4375L156.171 13.4459C156.059 13.4471 155.966 13.3578 155.965 13.2456C155.965 13.2456 155.965 13.2432 155.965 13.242V7.69046L155.983 4.37475C155.985 4.24926 156.048 4.18531 156.172 4.18531L159.266 4.16722C159.395 4.16601 159.516 4.22875 159.587 4.33493L160.502 5.702L160.5 5.7032Z" fill="white"/>
</g>
<path id="Vector_18" d="M63.4202 16.2042L87.4892 16.2428L113.687 16.2162L142.022 16.2138L166.208 16.2766C166.242 16.2766 166.259 16.2946 166.259 16.3308V16.4117C166.262 16.5022 166.217 16.5468 166.128 16.5468L81.2415 16.5915L73.4023 16.6964L40.1354 16.5649C40.0388 16.5649 39.9918 16.5167 39.9918 16.4213V16.3465C39.9918 16.2971 40.0159 16.2717 40.0642 16.2717L63.4202 16.2054V16.2042Z" fill="#AAABAD"/>
<g id="Group_3">
<path id="Vector_19" d="M50.067 22.6377C50.6546 23.5245 50.8356 24.4898 50.61 25.5311C50.2661 27.1081 49.2876 27.744 47.6756 27.4375C47.6008 27.423 47.5465 27.3579 47.5465 27.2819L47.5706 22.9949L47.5827 22.2275C47.5851 22.1213 47.637 22.0561 47.7383 22.0296C48.6457 21.7955 49.4215 21.9982 50.067 22.6377ZM48.0412 22.5026L48.0472 26.9271C48.0472 27.0261 48.128 27.1069 48.227 27.1069L48.4731 27.1045C49.4469 27.1045 50.2348 26.1392 50.2323 24.9495V24.4693C50.2299 23.2808 49.4396 22.3192 48.4671 22.3204L48.221 22.3228C48.122 22.3228 48.0412 22.4036 48.0412 22.5026Z" fill="white"/>
<path id="Vector_20" d="M55.8322 26.2177C55.9082 26.4397 55.983 26.4397 56.0566 26.2177L57.4418 22.1261C57.4852 21.9946 57.5757 21.9451 57.712 21.9789L57.8086 22.0055C57.881 22.0236 57.9256 22.0959 57.9075 22.1683C57.9075 22.172 57.9051 22.1756 57.9039 22.1792L56.1411 27.3651C56.1206 27.4267 56.065 27.4713 55.9999 27.4761C55.9335 27.4822 55.8732 27.4629 55.8165 27.4194C55.7731 27.3832 55.7417 27.3386 55.7236 27.2843C55.1444 25.5951 54.5737 23.9203 54.0114 22.2564C53.974 22.1466 54.0331 22.0272 54.1429 21.991C54.1466 21.9898 54.1514 21.9886 54.155 21.9873L54.2334 21.9668C54.3143 21.9451 54.3987 21.9898 54.4253 22.0682L55.831 26.2177H55.8322Z" fill="white"/>
<path id="Vector_21" d="M82.5461 22.2576C82.5473 22.0899 82.6836 21.9548 82.8513 21.9548H83.457C84.6721 21.9596 85.653 23.095 85.6482 24.4922V24.9906C85.6422 26.3878 84.654 27.5159 83.4389 27.5111H82.8332C82.6643 27.5111 82.528 27.3748 82.528 27.2059V27.2034L82.5461 22.2576ZM82.9744 22.6413L82.9684 26.7908C82.9672 26.9718 83.1119 27.119 83.2917 27.1202C83.2917 27.1202 83.2941 27.1202 83.2953 27.1202H83.5258C84.4428 27.1202 85.1873 26.1066 85.1897 24.8542V24.59C85.1921 23.3363 84.4501 22.3192 83.533 22.318H83.3014C83.1216 22.318 82.9768 22.4627 82.9744 22.6413Z" fill="white"/>
<path id="Vector_22" d="M99.0607 22.7608C99.1922 23.0069 99.2417 23.1819 99.2079 23.2881C99.08 23.7116 98.9316 23.7164 98.7615 23.3025C98.5153 22.7065 98.414 22.2407 97.5959 22.3493C96.7525 22.4567 96.4509 22.9804 96.691 23.9203C96.9275 24.8409 98.0436 24.31 98.607 24.8192C99.2007 25.3549 99.337 25.9679 99.0149 26.6569C98.3549 28.0782 96.0587 27.5497 96.1613 26.0125C96.1673 25.9184 96.2168 25.8677 96.3109 25.8593C96.4231 25.8496 96.5003 25.8967 96.5414 26.0005C96.6487 26.2707 96.6584 26.6303 96.8925 26.8246C98.005 27.7633 99.3479 26.3299 98.4574 25.1909C98.0858 24.7106 97.3305 25.0376 96.8237 24.6781C96.6584 24.5622 96.5076 24.4138 96.3736 24.234C95.4289 22.3578 97.8879 21.0028 99.0631 22.7596L99.0607 22.7608Z" fill="white"/>
<path id="Vector_23" d="M111.217 26.091C111.382 27.5715 113.463 27.4315 113.358 25.8424C113.295 24.9013 112.695 24.9314 111.964 24.8735C111.247 24.8192 110.75 23.9927 110.774 23.381C110.81 22.4097 111.715 21.7617 112.681 21.9753C113.336 22.1189 113.73 22.6003 113.862 23.4208C113.873 23.5016 113.817 23.5752 113.736 23.5861C113.721 23.5885 113.706 23.5885 113.691 23.5861L113.594 23.568C113.46 23.5439 113.386 23.4642 113.372 23.3279C113.288 22.5581 112.852 22.2371 112.065 22.3626C110.884 22.5484 110.968 24.5296 112.12 24.5236C112.302 24.5236 112.483 24.5345 112.663 24.5562C113.685 24.6853 114.143 26.0487 113.549 26.8318C112.62 28.0613 110.95 27.5485 110.74 25.9956C110.731 25.9257 110.779 25.8593 110.85 25.8496C110.859 25.8484 110.867 25.8484 110.876 25.8496L110.962 25.8521C111.095 25.8569 111.204 25.9594 111.217 26.0922V26.091Z" fill="white"/>
<path id="Vector_24" d="M120.189 25.9269C120.064 27.6052 118.013 28.0975 117.197 26.6098C117.105 26.3685 117.068 26.1646 117.086 25.9981C117.106 25.8376 117.192 25.7857 117.344 25.8388L117.423 25.8653C117.495 25.8931 117.546 25.957 117.558 26.033C117.614 26.4891 117.774 26.9501 118.28 27.055C119.573 27.3253 120.151 26.0053 119.365 25.1486C118.967 24.7106 118.376 25.0412 117.891 24.7263C116.988 24.1423 116.802 23.0866 117.636 22.3373C118.61 21.4589 119.936 22.073 120.215 23.3061C120.236 23.3991 120.193 23.4956 120.11 23.5426C119.976 23.6211 119.868 23.609 119.786 23.5101C119.731 23.4437 119.697 23.3713 119.687 23.2917C119.586 22.5424 119.142 22.2347 118.356 22.3686C117.226 22.5605 117.377 24.5212 118.464 24.5333C119.399 24.5453 120.011 24.9676 120.19 25.9269H120.189Z" fill="white"/>
<path id="Vector_25" d="M137.978 26.6762C137.958 25.431 137.947 24.1749 137.942 22.908C137.942 22.6558 137.863 22.4917 137.744 22.2818C137.676 22.1623 137.707 22.0779 137.835 22.0296C138.057 21.9439 138.286 21.9391 138.523 22.0175C138.612 22.0477 138.647 22.108 138.628 22.1973C138.608 22.3011 138.572 22.4 138.517 22.4941C138.456 22.6003 138.425 22.7137 138.425 22.8356L138.437 26.6364C138.437 26.7679 138.474 26.8885 138.55 26.9959L138.73 27.2541C138.84 27.4146 138.799 27.4942 138.607 27.4942L137.801 27.4967C137.605 27.4967 137.564 27.4182 137.678 27.2602L137.878 26.9814C137.944 26.8921 137.979 26.7848 137.977 26.6762H137.978Z" fill="white"/>
<path id="Vector_26" d="M149.234 22.4097C149.234 22.1611 149.436 21.9596 149.684 21.9596C149.684 21.9596 149.687 21.9596 149.688 21.9596L150.189 21.962C151.405 21.9656 152.388 23.0926 152.386 24.4802V24.9893C152.384 26.3781 151.395 27.5027 150.179 27.5015H150.177L149.676 27.4991C149.429 27.4978 149.23 27.2963 149.23 27.049L149.236 22.4084L149.234 22.4097ZM149.703 22.5786L149.727 26.8475C149.728 26.9899 149.845 27.1057 149.987 27.1057H150.246C151.158 27.1021 151.894 26.2008 151.889 25.0931C151.889 25.0931 151.889 25.0919 151.889 25.0907L151.883 24.3112C151.877 23.2048 151.134 22.3107 150.223 22.3143H149.964C149.821 22.3143 149.704 22.4314 149.704 22.575C149.704 22.575 149.704 22.5774 149.704 22.5786H149.703Z" fill="white"/>
<path id="Vector_27" d="M163.777 24.3981C164.112 24.5103 164.463 24.5646 164.833 24.5634C164.944 24.5634 165.053 24.5984 165.142 24.6624C165.9 25.2138 166.105 25.8762 165.76 26.6496C165.122 28.083 162.702 27.528 162.93 25.9606C162.946 25.8508 163.01 25.8026 163.122 25.8171C163.236 25.8327 163.306 25.9003 163.332 26.0174C163.413 26.3769 163.437 26.8029 163.823 26.9742C165.154 27.5642 165.772 26.2973 165.245 25.2174C165.199 25.1233 165.125 25.0581 165.026 25.0231C164.241 24.7504 163.578 25.0859 163.084 24.1484C162.139 22.3493 164.768 21.0305 165.763 22.7391C165.813 22.8223 165.842 22.9164 165.85 23.0154C165.896 23.4908 165.844 23.6935 165.695 23.6235C165.527 23.5451 165.438 23.4123 165.428 23.2253C165.359 21.7388 162.667 22.0923 163.546 24.1845C163.592 24.2907 163.67 24.3619 163.78 24.4005L163.777 24.3981Z" fill="white"/>
<path id="Vector_28" d="M43.4959 24.9676L44.2899 27.3241C44.3116 27.3881 44.2766 27.458 44.2127 27.4798C44.2018 27.4834 44.1909 27.4858 44.1789 27.4858L44.0618 27.4918C43.9255 27.4954 43.8374 27.4339 43.7952 27.306L43.1509 25.3127C43.1171 25.2053 43.0157 25.1329 42.9023 25.1329H41.7874C41.6197 25.1329 41.5099 25.2114 41.458 25.3694L40.8161 27.3205C40.7739 27.4423 40.6894 27.4966 40.5615 27.4822L40.4445 27.4701C40.3733 27.4629 40.3226 27.3977 40.3311 27.3253C40.3311 27.3169 40.3335 27.3072 40.3371 27.2988L40.6218 26.4445L41.9768 22.4869C42.2049 21.8148 42.4329 21.8148 42.6598 22.4869L43.4959 24.9664V24.9676ZM42.9083 24.5658L42.3811 23.0793C42.3231 22.9213 42.2688 22.9225 42.2194 23.0817L41.7452 24.5864C41.7054 24.7118 41.7512 24.7746 41.8827 24.7722L42.7756 24.7541C42.9071 24.7516 42.9518 24.6889 42.9071 24.5646L42.9083 24.5658Z" fill="white"/>
<path id="Vector_29" d="M64.9878 25.7555C64.5896 27.1491 63.1055 28.2496 61.8675 26.7896C60.854 25.6059 60.9107 23.5366 62.0618 22.4519C62.9016 21.6604 63.9477 21.9668 64.5353 22.8271C65.1084 23.6669 65.2593 24.6431 64.9878 25.7555ZM63.1489 27.1045C63.9706 27.1021 64.6318 26.0403 64.627 24.7335C64.6222 23.4268 63.9525 22.371 63.132 22.3735C62.3104 22.3759 61.6491 23.4377 61.654 24.7444C61.6588 26.0511 62.3284 27.1069 63.1489 27.1045Z" fill="white"/>
<path id="Vector_30" d="M71.367 22.4157C71.6409 22.5858 71.8315 22.797 71.9401 23.0479C71.9859 23.1577 71.9509 23.2265 71.8351 23.2543C71.6614 23.2965 71.5262 23.2386 71.4309 23.0805C71.005 22.3879 70.1507 22.0308 69.545 22.7656C68.8633 23.5933 68.6714 24.5803 68.9695 25.7278C69.5426 27.9346 71.9884 27.2143 71.5178 25.0533C71.4936 24.9411 71.4237 24.8892 71.3078 24.8976L70.2135 24.964C70.1471 24.9676 70.1121 24.9375 70.1061 24.8711L70.0976 24.7601C70.0856 24.6225 70.1471 24.5538 70.2834 24.5538L71.8484 24.5417C71.9473 24.5417 72.0282 24.6225 72.0282 24.7215L72.0161 27.3953C72.0149 27.4725 71.9509 27.5353 71.8725 27.534C71.8472 27.534 71.8218 27.5256 71.8001 27.5123C71.6577 27.4206 71.5709 27.2939 71.5359 27.131C71.5214 27.0611 71.4526 27.0164 71.3839 27.0309C71.3621 27.0357 71.3428 27.0454 71.3259 27.0587C70.5947 27.7066 69.7972 27.6221 69.1553 26.8789C68.6232 26.2635 68.3553 25.5021 68.3517 24.5948C68.4144 23.1143 69.7489 21.0872 71.367 22.4157Z" fill="white"/>
<path id="Vector_31" d="M76.4697 25.3115L75.7831 27.3084C75.7433 27.4303 75.6588 27.4846 75.5309 27.4701L75.438 27.4616C75.3536 27.4532 75.2932 27.3772 75.3017 27.2915C75.3017 27.2795 75.3053 27.2686 75.3089 27.2577L77.0331 22.2033C77.0609 22.1213 77.1285 22.0585 77.2105 22.038C77.3686 21.9958 77.4687 22.0356 77.5097 22.1551C78.0756 23.79 78.6451 25.4792 79.2183 27.2215C79.2641 27.3639 79.2147 27.4472 79.0687 27.4737L78.9758 27.4918C78.8949 27.5075 78.8141 27.4604 78.7863 27.3808L78.0877 25.3212C78.0479 25.2029 77.9658 25.1438 77.8416 25.1438L76.7086 25.1414C76.5988 25.1414 76.5022 25.2101 76.4685 25.3127L76.4697 25.3115ZM76.6736 24.6467C76.6591 24.6937 76.6844 24.7444 76.7327 24.7589C76.7411 24.7613 76.7496 24.7625 76.758 24.7625L77.7836 24.7746C77.8331 24.7746 77.8741 24.7348 77.8741 24.6853C77.8741 24.6768 77.8741 24.6684 77.8705 24.6612L77.3794 23.0479C77.3637 23.0009 77.3131 22.9755 77.266 22.99C77.2395 22.9985 77.2177 23.0202 77.2081 23.0479L76.6748 24.6455L76.6736 24.6467Z" fill="white"/>
<path id="Vector_32" d="M92.6368 26.0849C92.2808 26.9102 91.6739 27.4025 90.8136 27.563C89.3126 26.9718 88.7238 25.776 89.0484 23.9782C89.2644 22.7885 90.6013 21.2115 91.8597 22.3807C92.8793 23.3255 93.1375 24.561 92.6356 26.0861L92.6368 26.0849ZM90.8896 27.0779C91.7174 27.084 92.3955 26.033 92.4051 24.7323C92.4148 23.4316 91.75 22.371 90.9222 22.3662C90.0945 22.3602 89.4164 23.4111 89.4068 24.7118C89.3971 26.0125 90.0619 27.0731 90.8896 27.0779Z" fill="white"/>
<path id="Vector_33" d="M106.118 25.1353L104.961 25.1414C104.838 25.1414 104.729 25.2198 104.691 25.3356L104.013 27.3712C103.976 27.4834 103.857 27.5449 103.745 27.5087C103.735 27.5051 103.725 27.5015 103.716 27.4966L103.631 27.4544C103.577 27.4291 103.55 27.3663 103.568 27.3072L105.241 22.3071C105.249 22.2769 105.263 22.2504 105.283 22.2263C105.512 21.9439 105.685 21.9693 105.798 22.3011C106.368 23.9324 106.931 25.6011 107.489 27.3108C107.51 27.3748 107.475 27.4448 107.411 27.4665L107.337 27.4906C107.188 27.5389 107.089 27.4882 107.04 27.341L106.365 25.3115C106.33 25.2041 106.229 25.1329 106.117 25.1341L106.118 25.1353ZM104.937 24.596C104.915 24.6599 104.95 24.7299 105.014 24.7517C105.027 24.7565 105.041 24.7577 105.054 24.7577L105.999 24.7601C106.066 24.7601 106.122 24.7058 106.122 24.637C106.122 24.6238 106.119 24.6105 106.116 24.5972L105.645 23.2277C105.622 23.1638 105.551 23.1312 105.487 23.1541C105.453 23.1662 105.427 23.1927 105.413 23.2277L104.937 24.5948V24.596Z" fill="white"/>
<path id="Vector_34" d="M126.595 22.5424C127.706 24.0229 127.715 25.4708 126.622 26.8861C126.29 27.3157 125.876 27.5135 125.38 27.4798C124.049 27.3929 123.405 25.7917 123.452 24.6262C123.46 23.0757 124.969 20.9304 126.594 22.5424H126.595ZM125.415 27.1021C126.243 27.1045 126.917 26.0487 126.922 24.742C126.927 23.4353 126.26 22.3747 125.432 22.371C124.604 22.3686 123.93 23.4244 123.925 24.7311C123.92 26.0379 124.587 27.0985 125.415 27.1021Z" fill="white"/>
<path id="Vector_35" d="M132.615 22.3445C132.353 22.324 132.095 22.4278 131.92 22.6269C131.006 23.6657 130.859 24.8904 131.479 26.2997C131.881 27.2167 133.087 27.3941 133.628 26.4735C133.719 26.3238 133.818 26.1887 133.925 26.0693C134.004 25.9848 134.095 25.9619 134.201 26.0005C134.232 26.0101 134.253 26.0294 134.268 26.0572C134.296 26.1127 134.296 26.1682 134.268 26.2225C133.668 27.4098 132.214 28.1144 131.297 26.7075C130.402 25.3344 130.398 24.0229 131.285 22.7716C132.182 21.5071 133.44 21.9439 134.175 23.0323C134.226 23.1047 134.206 23.2036 134.133 23.2555C134.133 23.2555 134.13 23.2567 134.13 23.2579L134.034 23.3206C133.996 23.346 133.944 23.3351 133.917 23.2965C133.503 22.6992 133.07 22.3819 132.616 22.3457L132.615 22.3445Z" fill="white"/>
<path id="Vector_36" d="M144.579 25.1498L143.455 25.1474C143.317 25.1474 143.226 25.2126 143.182 25.3417L142.499 27.3591C142.462 27.4701 142.34 27.5304 142.228 27.4918C142.217 27.4882 142.207 27.4834 142.198 27.4785L142.123 27.4399C142.058 27.4061 142.027 27.3277 142.05 27.2565L143.682 22.4724C143.907 21.8064 144.133 21.8064 144.36 22.4724L145.981 27.2783C146.002 27.3386 145.975 27.4049 145.919 27.4375L145.838 27.4822C145.734 27.5413 145.601 27.5027 145.543 27.3977C145.536 27.3856 145.531 27.3724 145.527 27.3603L144.848 25.3453C144.809 25.2283 144.701 25.1498 144.582 25.151L144.579 25.1498ZM143.431 24.59C143.409 24.6539 143.444 24.7239 143.508 24.7456C143.52 24.7492 143.532 24.7517 143.544 24.7517L144.461 24.7637C144.529 24.7649 144.585 24.7106 144.587 24.6431C144.587 24.6298 144.585 24.6165 144.582 24.6044L144.141 23.2108C144.121 23.1457 144.052 23.1095 143.988 23.13C143.951 23.1421 143.921 23.171 143.908 23.2084L143.432 24.59H143.431Z" fill="white"/>
<path id="Vector_37" d="M157.649 27.4556C156.574 27.458 155.702 26.2406 155.699 24.7372C155.697 23.2338 156.566 22.0139 157.641 22.0115C158.716 22.0091 159.588 23.2265 159.59 24.7299C159.593 26.2334 158.724 27.4532 157.649 27.4556ZM157.645 27.1021C158.468 27.1009 159.133 26.0367 159.131 24.7251C159.128 23.4135 158.46 22.3517 157.637 22.353C156.814 22.3542 156.149 23.4184 156.152 24.7299C156.154 26.0415 156.823 27.1033 157.645 27.1021Z" fill="white"/>
</g>
</g>
</svg>
